PathFileType	4	(X/Y/Z)	/Users/itak/Documents/Research/Walk-IL/dataset/trc/00436_00167.trc
DataRate	CameraRate	NumFrames	NumMarkers	Units	OrigDataRate	OrigDataStartFrame	OrigNumFrames
100.000000	100.000000	4	56	mm	100.000000	58	470
Frame#	Time	RPSI			LPSI			L3			STRN			T10			C7			CLAV			RBAK			LBAK			LSHO			LUPA			LAEL			LAOL			LWTS			LWPS			LFRA			LIFD			LHPS			LHTS			RSHO			RUPA			RAEL			RAOL			RWTS			RWPS			RFRA			RIFD			RHTS			RHPS			RBHD			LFHD			RFHD			LBHD			LHIP			RHIP			RASI			LASI			LKNE			LTHI			LANK			LTIP			LTOE			LMT1			LMT5			LHEE			RKNE			RTHI			RANK			RTIP			RTOE			RMT1			RMT5			RHEE			*53			*54			*55			
		X1	Y1	Z1	X2	Y2	Z2	X3	Y3	Z3	X4	Y4	Z4	X5	Y5	Z5	X6	Y6	Z6	X7	Y7	Z7	X8	Y8	Z8	X9	Y9	Z9	X10	Y10	Z10	X11	Y11	Z11	X12	Y12	Z12	X13	Y13	Z13	X14	Y14	Z14	X15	Y15	Z15	X16	Y16	Z16	X17	Y17	Z17	X18	Y18	Z18	X19	Y19	Z19	X20	Y20	Z20	X21	Y21	Z21	X22	Y22	Z22	X23	Y23	Z23	X24	Y24	Z24	X25	Y25	Z25	X26	Y26	Z26	X27	Y27	Z27	X28	Y28	Z28	X29	Y29	Z29	X30	Y30	Z30	X31	Y31	Z31	X32	Y32	Z32	X33	Y33	Z33	X34	Y34	Z34	X35	Y35	Z35	X36	Y36	Z36	X37	Y37	Z37	X38	Y38	Z38	X39	Y39	Z39	X40	Y40	Z40	X41	Y41	Z41	X42	Y42	Z42	X43	Y43	Z43	X44	Y44	Z44	X45	Y45	Z45	X46	Y46	Z46	X47	Y47	Z47	X48	Y48	Z48	X49	Y49	Z49	X50	Y50	Z50	X51	Y51	Z51	X52	Y52	Z52	X53	Y53	Z53	X54	Y54	Z54	X55	Y55	Z55	X56	Y56	Z56	

59	0.58	-1175.782470703125	970.3971557617188	-436.2842102050781	-1101.52978515625	967.12890625	-556.3740844726562	-1141.208618164062	1056.57958984375	-481.0084228515625	-909.3507690429688	1254.654174804688	-368.2873229980469	-1163.371704101562	1179.366577148438	-495.4223937988281	-1116.38916015625	1448.70751953125	-455.96240234375	-942.3306274414062	1367.48046875	-389.5462646484375	-1212.031372070312	1328.282348632812	-394.9775695800781	-1099.740844726562	1401.931030273438	-560.4954833984375	-970.2544555664062	1422.194091796875	-585.6260375976562	-928.3396606445312	1301.546142578125	-675.294189453125	-886.4637451171875	1083.021484375	-681.1165771484375	-988.8967895507812	1068.48486328125	-672.1405639648438	-844.7404174804688	883.2847900390625	-592.8076782226562	-851.7374877929688	865.26416015625	-664.6873168945312	-863.3775024414062	995.6340942382812	-674.8362426757812	-842.9131469726562	713.9166870117188	-588.6039428710938	-847.4990234375	784.62548828125	-657.4403686523438	-828.2332763671875	792.756591796875	-589.3740234375	-1116.679931640625	1415.937133789062	-277.697265625	-1158.517822265625	1352.154174804688	-213.7909393310547	-1155.148559570312	1062.770385742188	-158.3104553222656	-1196.6435546875	1046.109741210938	-209.330810546875	-1040.959716796875	864.38916015625	-181.7957305908203	-1118.467895507812	846.0700073242188	-142.7973327636719	-1152.147338867188	1004.02197265625	-149.1792602539062	-1038.163940429688	704.9904174804688	-179.0445709228516	-1026.528564453125	764.4408569335938	-167.9151916503906	-1098.0830078125	759.2776489257812	-142.1529388427734	-1099.497436523438	1640.171997070312	-355.3074951171875	-907.2816162109375	1676.43408203125	-424.6542663574219	-972.303466796875	1673.980346679688	-311.4079895019531	-1024.990478515625	1646.73193359375	-517.3451538085938	-930.3220825195312	857.7570190429688	-586.247314453125	-1154.417846679688	863.2078857421875	-259.0436706542969	-1030.537963867188	901.042724609375	-255.5343933105469	-882.7339477539062	894.7392578125	-468.1191711425781	-979.6314697265625	435.9319152832031	-549.518798828125	-935.3604736328125	586.1510620117188	-558.1179809570312	-1058.781127929688	32.89287948608398	-563.54052734375	-988.5972900390625	285.5868835449219	-554.9423217773438	-905.6511840820312	44.31500244140625	-387.117431640625	-983.198486328125	50.14568328857422	-402.1248779296875	-923.0966186523438	45.11760330200195	-499.1051940917969	-1131.786987304688	37.48287200927734	-550.6528930664062	-1137.826904296875	465.7192077636719	-291.5965270996094	-1126.882568359375	724.809814453125	-232.3744201660156	-1176.733520507812	42.70014190673828	-329.5551147460938	-1149.573852539062	319.8243103027344	-286.8663940429688	-970.2841186523438	48.99313735961914	-260.2211608886719	-1004.674438476562	53.96769332885742	-323.5436401367188	-1075.132568359375	48.02654266357422	-240.5918884277344	-1211.142700195312	34.23430252075195	-402.0979919433594	nan	nan	nan	nan	nan	nan	nan	nan	nan	
60	0.59	-1175.419067382812	970.552001953125	-436.20849609375	-1101.311401367188	967.3726196289062	-556.4183959960938	-1140.724609375	1056.68798828125	-480.9671325683594	-908.663818359375	1254.574096679688	-368.2249145507812	-1162.780029296875	1179.447021484375	-495.50244140625	-1115.592529296875	1448.769897460938	-455.9612731933594	-941.6202392578125	1367.384399414062	-389.4483947753906	-1211.340942382812	1328.354370117188	-395.08154296875	-1098.87548828125	1402.015625	-560.526611328125	-969.35888671875	1422.23876953125	-585.5117797851562	-927.324951171875	1301.57421875	-675.1018676757812	-885.51953125	1083.058715820312	-680.9003295898438	-988.0010986328125	1068.5810546875	-672.0642700195312	-843.9535522460938	883.2952880859375	-592.611083984375	-850.830810546875	865.273193359375	-664.4374389648438	-862.4535522460938	995.6815795898438	-674.6029663085938	-842.1873779296875	713.9139404296875	-588.4473266601562	-846.6666259765625	784.664794921875	-657.1907348632812	-827.4242553710938	792.755859375	-589.141845703125	-1116.033325195312	1415.935668945312	-277.7356262207031	-1157.95751953125	1352.11181640625	-213.8670043945312	-1154.609130859375	1062.653076171875	-158.5361785888672	-1196.02099609375	1046.011108398438	-209.6350860595703	-1040.23681640625	864.4290161132812	-181.9764099121094	-1117.759399414062	845.9934692382812	-143.1314849853516	-1151.548217773438	1003.909973144531	-149.4680938720703	-1037.273071289062	705.003662109375	-179.2751617431641	-1025.69140625	764.465576171875	-168.1342315673828	-1097.275146484375	759.239990234375	-142.5065002441406	-1098.7216796875	1640.14892578125	-355.1722717285156	-906.3604125976562	1676.482543945312	-424.4448547363281	-971.5714721679688	1673.94140625	-311.2225341796875	-1024.1845703125	1646.720581054688	-517.1649169921875	-930.2157592773438	857.7385864257812	-586.3175659179688	-1154.002685546875	863.2625122070312	-258.9821472167969	-1030.12158203125	901.00341796875	-255.5758819580078	-882.3935546875	894.703125	-468.1892395019531	-979.5828857421875	435.9082336425781	-549.5620727539062	-935.3037719726562	586.0901489257812	-558.2539672851562	-1058.77880859375	32.90207290649414	-563.5361328125	-988.5226440429688	285.5959777832031	-555.0328369140625	-905.6131591796875	44.28243637084961	-387.1219787597656	-983.1588745117188	50.16855239868164	-402.1464233398438	-923.0193481445312	45.05129241943359	-499.1144104003906	-1131.776611328125	37.51707077026367	-550.6351928710938	-1137.645385742188	465.7671203613281	-291.6468505859375	-1126.5810546875	724.8327026367188	-232.3850860595703	-1176.716918945312	42.72567367553711	-329.553955078125	-1149.47509765625	319.8605346679688	-286.87646484375	-970.2754516601562	48.98962783813477	-260.2177734375	-1004.6767578125	53.97232818603516	-323.5323181152344	-1075.127197265625	48.03578186035156	-240.5982055664062	-1211.1220703125	34.26090240478516	-402.1133117675781	nan	nan	nan	nan	nan	nan	nan	nan	nan	
61	0.6	-1175.075317382812	970.6964111328125	-436.1527099609375	-1101.127075195312	967.5956420898438	-556.4816284179688	-1140.270385742188	1056.802734375	-480.9095153808594	-907.953125	1254.492553710938	-368.1852416992188	-1162.179321289062	1179.542236328125	-495.5665588378906	-1114.783813476562	1448.841552734375	-455.9422302246094	-940.9006958007812	1367.284423828125	-389.3488159179688	-1210.640869140625	1328.448486328125	-395.1554870605469	-1098.007568359375	1402.10595703125	-560.542236328125	-968.4647827148438	1422.28125	-585.4063720703125	-926.3228759765625	1301.617065429688	-674.9074096679688	-884.5795288085938	1083.100708007812	-680.7031860351562	-987.0901489257812	1068.659423828125	-672.0064697265625	-843.165771484375	883.3197021484375	-592.3907470703125	-849.9080200195312	865.2957153320312	-664.1928100585938	-861.5186157226562	995.7388305664062	-674.370849609375	-841.4683837890625	713.9208984375	-588.28271484375	-845.8165893554688	784.7192993164062	-656.933349609375	-826.5889282226562	792.7774658203125	-588.8840942382812	-1115.350219726562	1415.956176757812	-277.7582397460938	-1157.35400390625	1352.097534179688	-213.9295959472656	-1154.0595703125	1062.557739257812	-158.7627410888672	-1195.387817382812	1045.9375	-209.931640625	-1039.500244140625	864.490478515625	-182.1828460693359	-1117.021240234375	845.9304809570312	-143.4925689697266	-1150.933837890625	1003.819152832031	-149.7590026855469	-1036.351928710938	705.0468139648438	-179.5729370117188	-1024.831420898438	764.5076904296875	-168.3944396972656	-1096.437744140625	759.2194213867188	-142.9018249511719	-1097.923706054688	1640.137573242188	-355.0503234863281	-905.3978881835938	1676.5419921875	-424.23779296875	-970.8380737304688	1673.892822265625	-311.0220336914062	-1023.340759277344	1646.711669921875	-516.98291015625	-930.0794067382812	857.7136840820312	-586.3763427734375	-1153.613891601562	863.3153076171875	-258.9168701171875	-1029.697509765625	900.9627685546875	-255.58642578125	-882.069580078125	894.6683349609375	-468.2312622070312	-979.5377197265625	435.8960876464844	-549.6162109375	-935.23193359375	586.0347900390625	-558.3699340820312	-1058.776611328125	32.90866088867188	-563.5338134765625	-988.4515380859375	285.5990295410156	-555.11181640625	-905.5830688476562	44.25592041015625	-387.1278381347656	-983.1256713867188	50.18880462646484	-402.1646423339844	-922.9539794921875	44.99532318115234	-499.1219482421875	-1131.77783203125	37.55210876464844	-550.6160888671875	-1137.457641601562	465.8121948242188	-291.6834411621094	-1126.301391601562	724.8616943359375	-232.3956756591797	-1176.700073242188	42.75417709350586	-329.55712890625	-1149.369140625	319.89111328125	-286.8785400390625	-970.2660522460938	48.98654174804688	-260.2122802734375	-1004.67529296875	53.97560501098633	-323.5242004394531	-1075.121215820312	48.04453277587891	-240.6045837402344	-1211.09814453125	34.28814315795898	-402.131591796875	nan	nan	nan	nan	nan	nan	nan	nan	nan	
62	0.61	-1174.74755859375	970.8270263671875	-436.1168212890625	-1100.962524414062	967.7872314453125	-556.556884765625	-1139.838623046875	1056.92041015625	-480.843017578125	-907.2245483398438	1254.407836914062	-368.1669616699219	-1161.571655273438	1179.6494140625	-495.6159362792969	-1113.964599609375	1448.9189453125	-455.9072570800781	-940.174072265625	1367.183227539062	-389.2442932128906	-1209.927612304688	1328.564453125	-395.2053833007812	-1097.138549804688	1402.200317382812	-560.539794921875	-967.568603515625	1422.318481445312	-585.307373046875	-925.3385009765625	1301.671752929688	-674.7186279296875	-883.6421508789062	1083.14794921875	-680.5281372070312	-986.1676025390625	1068.713256835938	-671.978759765625	-842.3794555664062	883.3573608398438	-592.1451416015625	-848.9768676757812	865.3311157226562	-663.954833984375	-860.5797729492188	995.7996826171875	-674.1438598632812	-840.7493896484375	713.9383544921875	-588.10107421875	-844.9503784179688	784.7853393554688	-656.6755981445312	-825.7398071289062	792.822265625	-588.603759765625	-1114.631958007812	1415.994750976562	-277.761962890625	-1156.708984375	1352.10791015625	-213.9714813232422	-1153.492797851562	1062.483520507812	-158.9870758056641	-1194.744384765625	1045.885986328125	-210.2108154296875	-1038.745483398438	864.5670166015625	-182.4225616455078	-1116.25439453125	845.8800659179688	-143.8726348876953	-1150.303100585938	1003.750183105469	-150.0415954589844	-1035.405029296875	705.1201171875	-179.9402313232422	-1023.949462890625	764.564697265625	-168.7037963867188	-1095.571044921875	759.2152099609375	-143.3359069824219	-1097.106567382812	1640.141723632812	-354.9477844238281	-904.4072875976562	1676.599731445312	-424.027587890625	-970.0945434570312	1673.82958984375	-310.8033752441406	-1022.451477050781	1646.706665039062	-516.8012084960938	-929.904052734375	857.6802368164062	-586.4202880859375	-1153.255493164062	863.3643798828125	-258.8518981933594	-1029.278198242188	900.9197387695312	-255.5676574707031	-881.7534790039062	894.6318359375	-468.2443542480469	-979.4934692382812	435.8936157226562	-549.6808471679688	-935.145751953125	585.983642578125	-558.471435546875	-1058.773803710938	32.91259384155273	-563.53369140625	-988.3853149414062	285.5980224609375	-555.1825561523438	-905.5604248046875	44.23531723022461	-387.1348571777344	-983.0982666015625	50.2064323425293	-402.1801452636719	-922.9008178710938	44.94865798950195	-499.1288146972656	-1131.787231445312	37.58493804931641	-550.598388671875	-1137.270751953125	465.8538513183594	-291.7108154296875	-1126.047119140625	724.8963012695312	-232.4114837646484	-1176.6826171875	42.7849006652832	-329.5639038085938	-1149.2607421875	319.9173278808594	-286.8759460449219	-970.2557373046875	48.98429870605469	-260.2046508789062	-1004.669738769531	53.97741317749023	-323.5188903808594	-1075.115234375	48.05256652832031	-240.6101837158203	-1211.07080078125	34.31552124023438	-402.153076171875	nan	nan	nan	nan	nan	nan	nan	nan	nan	
